<svg xmlns="http://www.w3.org/2000/svg" width="26" height="24" viewBox="0 0 26 24" fill="none">
  <path d="M25.9999 0.36364H8.63168V12.2372H15.8696L22.7451 17.6635V12.2372H25.9999V0.36364Z" fill="#873EFF"/>
  <path d="M15.1619 6.64638H2.10046C0.759537 6.64638 0 7.38974 0 8.71803V17.6265C0 18.9536 0.759537 19.6981 2.10046 19.6981H3.22111V23.9999L8.67148 19.6981H15.1606C16.5028 19.6981 17.2611 18.9548 17.2611 17.6265V8.71803C17.2611 7.39093 16.5016 6.64638 15.1606 6.64638H15.1619Z" fill="#D1C1FF"/>
  <path d="M4.04448 14.241C4.64272 14.241 5.12782 13.7609 5.12782 13.1689C5.12782 12.5768 4.64272 12.0967 4.04448 12.0967C3.44624 12.0967 2.96115 12.5768 2.96115 13.1689C2.96115 13.7609 3.44624 14.241 4.04448 14.241Z" fill="#873EFF"/>
  <path d="M8.63295 14.241C9.2312 14.241 9.71629 13.7609 9.71629 13.1689C9.71629 12.5768 9.2312 12.0967 8.63295 12.0967C8.03471 12.0967 7.54962 12.5768 7.54962 13.1689C7.54962 13.7609 8.03471 14.241 8.63295 14.241Z" fill="#873EFF"/>
  <path d="M13.2203 14.241C13.8185 14.241 14.3036 13.7609 14.3036 13.1689C14.3036 12.5768 13.8185 12.0967 13.2203 12.0967C12.6221 12.0967 12.137 12.5768 12.137 13.1689C12.137 13.7609 12.6221 14.241 13.2203 14.241Z" fill="#873EFF"/>
</svg>