<svg xmlns="http://www.w3.org/2000/svg" width="27" height="26" viewBox="0 0 27 26" fill="none">
  <path d="M21.5645 16.3523V9.64763C21.5645 8.31152 20.8061 7.56522 19.47 7.56522H7.52929C6.19318 7.56522 5.43484 8.31152 5.43484 9.64763V16.3523C5.43484 17.6884 6.19318 18.4347 7.52929 18.4347H19.47C20.8061 18.4347 21.5645 17.6884 21.5645 16.3523Z" fill="#D1C1FF"/>
  <path d="M21.5645 9.74391H5.43488V11.8865H21.5645V9.74391Z" fill="#873EFF"/>
  <path d="M15.0046 21.9557L9.49167 17.9112V20.3427H8.88981C6.04907 20.3427 3.73796 18.0316 3.73796 15.1909V14.0835V14.589C3.73796 13.2649 3.68981 11.9168 1.99259 11.9168H0.5V15.1367C0.5 19.8131 4.26759 23.5807 8.88981 23.5807H9.49167V26.0001L15.0046 21.9557Z" fill="#873EFF"/>
  <path d="M8.88952 23.5806H9.49138V20.3427L4.58267 22.3842C5.84295 23.1437 7.31628 23.5806 8.88952 23.5806Z" fill="#3C087E"/>
  <path d="M11.9951 4.04445L17.5081 8.0889V5.65741H18.11C20.9507 5.65741 23.2618 7.96853 23.2618 10.8093V11.9167V11.4111C23.2618 12.7352 23.31 14.0833 25.0072 14.0833H26.4998V10.8634C26.4998 6.18704 22.7322 2.41945 18.11 2.41945H17.5081V6.67572e-06L11.9951 4.04445Z" fill="#873EFF"/>
  <path d="M18.11 2.41941H17.5081V5.65738L22.4168 3.61589C21.1565 2.85636 19.6832 2.41941 18.11 2.41941Z" fill="#3C087E"/>
</svg>