<svg xmlns="http://www.w3.org/2000/svg" width="27" height="27" viewBox="0 0 27 27" fill="none">
  <path d="M13.2872 2.2381C6.69809 2.2381 1.35605 7.58014 1.35605 14.1692C1.35605 20.7583 6.69809 26.1003 13.2872 26.1003C19.8762 26.1003 25.2183 20.7583 25.2183 14.1692C25.2183 7.58014 19.8774 2.2381 13.2872 2.2381Z" fill="#D1C1FF"/>
  <path d="M15.7873 8.34693C14.1779 6.96629 11.7549 7.15045 10.3742 8.7598C8.99357 10.3692 9.17773 12.7922 10.7871 14.1729C12.3964 15.5535 14.8195 15.3693 16.2001 13.76C17.5808 12.1506 17.3966 9.72758 15.7873 8.34693Z" fill="#873EFF"/>
  <path d="M13.2872 16.1987C16.0184 16.1987 19.7535 17.0341 19.7535 20.5285C19.7535 21.0316 19.7535 22.6819 19.7535 24.1973C17.8902 25.401 15.6705 26.1004 13.2872 26.1004C10.9039 26.1004 8.68423 25.401 6.82089 24.1973C6.82089 22.724 6.82089 21.1074 6.82089 20.5285C6.82089 17.0353 10.556 16.1987 13.2872 16.1987Z" fill="#873EFF"/>
</svg>