<svg width="272" height="248" viewBox="0 0 272 248" fill="none" xmlns="http://www.w3.org/2000/svg">
<path d="M20.8155 168.554C-8.7127 153.053 -6.56927 99.2186 25.6164 48.3206C57.8002 -2.58481 107.823 -31.2838 137.359 -15.7847C155.948 -6.02646 161.977 18.9135 155.882 48.7475C210.831 -11.8311 278.083 -41.2677 321.197 -18.6406C364.313 3.99388 370.1 71.7663 340.146 145.479C365.411 125.703 392.114 117.952 410.702 127.71C440.23 143.211 438.087 197.045 405.901 247.944C373.718 298.849 323.693 327.541 294.164 312.039C275.576 302.281 269.547 277.341 275.642 247.507C220.684 308.088 153.433 337.525 110.327 314.895C67.2105 292.261 61.424 224.488 91.3773 150.775C66.1132 170.552 39.41 178.303 20.8214 168.544L20.8155 168.554Z" fill="#DFD1FB" fill-opacity="0.3"/>
</svg>
