<svg width="248" height="248" viewBox="0 0 248 248" fill="none" xmlns="http://www.w3.org/2000/svg">
<path d="M62.7809 121.071L115.332 121.071C118.697 121.071 121.425 118.496 121.425 115.32V75.0985C121.425 71.9225 118.697 69.3478 115.332 69.3478H62.7809C59.4159 69.3478 56.688 71.9225 56.688 75.0985L56.688 115.32C56.688 118.496 59.4159 121.071 62.7809 121.071Z" fill="#D1C1FF" stroke="#2C045D" stroke-width="2.00218" stroke-linecap="round" stroke-linejoin="round"/>
<path d="M152.475 110.726H187.148C189.368 110.726 191.168 108.916 191.168 106.682V78.3973C191.168 76.1638 189.368 74.3532 187.148 74.3532H152.475C150.254 74.3532 148.455 76.1638 148.455 78.3973L148.455 106.682C148.455 108.916 150.254 110.726 152.475 110.726Z" fill="#D1C1FF" stroke="#2C045D" stroke-width="2.00218" stroke-linecap="round" stroke-linejoin="round"/>
<path d="M82.049 177.741H168.393C173.922 177.741 178.404 173.259 178.404 167.73V97.7121C178.404 92.1832 173.922 87.7012 168.393 87.7012L82.049 87.7012C76.5201 87.7012 72.0381 92.1832 72.0381 97.7121L72.0381 167.73C72.0381 173.259 76.5201 177.741 82.049 177.741Z" fill="#F2EDFF" stroke="#2C045D" stroke-width="2.00218" stroke-linecap="round" stroke-linejoin="round"/>
<path d="M86.0533 114.897C86.0533 117.017 87.7715 118.735 89.8909 118.735C92.0102 118.735 93.7284 117.017 93.7284 114.897C93.7284 112.778 92.0102 111.06 89.8909 111.06C87.7715 111.06 86.0533 112.778 86.0533 114.897Z" fill="#D1C1FF" stroke="#2C045D" stroke-width="2.00218" stroke-linecap="round" stroke-linejoin="round"/>
<path d="M100.402 114.73H122.76" stroke="#2C045D" stroke-width="2.29" stroke-linecap="round" stroke-linejoin="round"/>
<path d="M143.115 114.73L150.457 114.73" stroke="#2C045D" stroke-width="2.29" stroke-linecap="round" stroke-linejoin="round"/>
<path d="M156.463 114.73L163.805 114.73" stroke="#2C045D" stroke-width="2.29" stroke-linecap="round" stroke-linejoin="round"/>
<path d="M163.805 125.742H86.0533V150.77H163.805V125.742Z" fill="#D1C1FF" stroke="#2C045D" stroke-width="2.29" stroke-linecap="round" stroke-linejoin="round"/>
<path d="M87.0545 159.779H104.624" stroke="#2C045D" stroke-width="2.29" stroke-linecap="round" stroke-linejoin="round"/>
<path d="M105.063 168.456H122.632" stroke="#2C045D" stroke-width="2.29" stroke-linecap="round" stroke-linejoin="round"/>
<path d="M87.0545 168.456H98.0352" stroke="#2C045D" stroke-width="2.29" stroke-linecap="round" stroke-linejoin="round"/>
<path d="M111.651 159.779H122.632" stroke="#2C045D" stroke-width="2.29" stroke-linecap="round" stroke-linejoin="round"/>
<path d="M178.404 102.598L178.404 97.7121C178.404 92.1827 173.922 87.7012 168.393 87.7012H82.0492C76.5199 87.7012 72.0383 92.1827 72.0383 97.7121L72.0384 102.598H178.404Z" fill="#A77EFF" stroke="#2C045D" stroke-width="2.29" stroke-linecap="round" stroke-linejoin="round"/>
<path d="M76.3762 99.3805V96.6373C76.3762 93.9644 77.4903 91.7055 81.308 91.7055H84.0512C79.8118 91.7055 76.3762 95.1412 76.3762 99.3805Z" fill="#F2EDFF" stroke="#F2EDFF" stroke-width="2.29" stroke-linecap="round" stroke-linejoin="round"/>
<path d="M177.987 136.921L177.987 153.94L164.853 161.364C163.009 162.406 160.812 162.623 158.8 161.963L158.795 162.442C158.777 164.023 157.986 165.495 156.677 166.383C155.58 167.128 154.164 167.213 152.985 166.607L151.249 165.713C150.53 168.172 148.262 169.851 145.701 169.821L135.852 169.708L177.987 136.921Z" fill="#2C045D"/>
<path d="M135.653 158.39C141.626 151.079 152.69 155.972 148.691 165.194C147.297 168.124 144.946 168.597 141.9 168.659C139.266 168.712 136.83 170.114 135.793 171.453C135.371 171.998 134.609 171.839 134.42 171.167C133.68 168.529 131.469 163.516 135.653 158.39Z" fill="#F2EDFF" stroke="#2C045D" stroke-width="2.29" stroke-linecap="round" stroke-linejoin="round"/>
<path d="M154.739 162.769C157.349 160.564 156.962 155.815 153.876 152.161C150.789 148.507 146.171 147.332 143.562 149.536C140.952 151.741 141.339 156.49 144.425 160.144C147.512 163.798 152.129 164.973 154.739 162.769Z" fill="#B999FF" stroke="#2C045D" stroke-width="2.29" stroke-linecap="round" stroke-linejoin="round"/>
<path d="M190.383 121.323C187.38 117.767 181.973 117.55 178.696 120.854L148.978 149.886C148.856 150.01 148.766 150.163 148.725 150.332C148.475 151.368 149.207 153.204 150.637 154.897C152.067 156.59 153.752 157.619 154.818 157.545C154.992 157.533 155.157 157.469 155.3 157.37L188.891 132.924C192.697 130.245 193.387 124.879 190.383 121.323Z" fill="#B999FF" stroke="#2C045D" stroke-width="2.29" stroke-linecap="round" stroke-linejoin="round"/>
<path d="M188.891 132.921L184.995 135.663C183.527 136.448 180.476 134.816 177.947 131.82C175.459 128.874 174.352 125.645 175.293 124.29L178.703 120.854C181.98 117.55 187.387 117.767 190.388 121.32C193.392 124.876 192.699 130.242 188.894 132.919L188.891 132.921Z" fill="#2C045D" stroke="#2C045D" stroke-width="2.29" stroke-linecap="round" stroke-linejoin="round"/>
<path d="M184.938 135.692L180.826 138.574C178.796 138.403 176.379 137.035 174.46 134.764C172.542 132.493 171.601 129.896 171.767 127.871L175.261 124.334C174.372 125.715 175.483 128.908 177.945 131.822C180.408 134.737 183.448 136.408 184.94 135.695L184.938 135.692Z" fill="#F2EDFF" stroke="#2C045D" stroke-width="2.29" stroke-linecap="round" stroke-linejoin="round"/>
<path d="M184.004 124.813C186.127 124.992 187.932 124.139 188.036 122.909C188.14 121.679 186.502 120.537 184.379 120.358C182.256 120.179 180.451 121.031 180.347 122.262C180.244 123.492 181.881 124.634 184.004 124.813Z" fill="#F2EDFF"/>
<path d="M148.755 164.436C147.359 167.366 145.01 167.839 141.964 167.901C139.33 167.956 136.893 169.358 135.857 170.697C135.432 171.242 134.67 171.083 134.481 170.411C134.052 168.873 133.121 166.527 133.249 163.823C132.883 166.842 133.949 169.484 134.418 171.167C134.606 171.839 135.368 171.998 135.793 171.452C136.83 170.113 139.266 168.712 141.901 168.656C144.946 168.594 147.295 168.121 148.691 165.191C148.942 164.614 149.132 164.052 149.27 163.512C149.223 163.496 149.173 163.479 149.126 163.463C149.021 163.782 148.899 164.108 148.755 164.436Z" fill="#2C045D" stroke="#2C045D" stroke-width="2.29" stroke-linecap="round" stroke-linejoin="round"/>
</svg>
