<svg width="317" height="248" viewBox="0 0 317 248" fill="none" xmlns="http://www.w3.org/2000/svg">
<path d="M402.404 57.7259C427.151 35.07 410.987 -16.4458 366.317 -57.3411C321.636 -98.246 265.365 -113.034 240.618 -90.3881C225.049 -76.135 225.675 -50.4392 239.417 -23.1661C170.01 -67.5315 96.7497 -78.5726 60.6209 -45.5065C24.5026 -12.4404 36.5629 54.6286 85.0235 118.18C55.2225 105.6 27.1652 105.016 11.5964 119.279C-13.1508 141.935 3.01322 193.451 47.6835 234.346C92.3537 275.241 148.635 290.039 173.372 267.384C188.941 253.13 188.314 227.435 174.573 200.162C243.98 244.527 317.24 255.568 353.369 222.492C389.487 189.426 377.427 122.357 328.966 58.8061C358.767 71.3863 386.824 71.9599 402.393 57.7068L402.404 57.7259Z" fill="#DFD1FB" fill-opacity="0.3"/>
</svg>
