<svg width="248" height="248" viewBox="0 0 248 248" fill="none" xmlns="http://www.w3.org/2000/svg">
<path d="M178.75 58.011H122.14C115.816 58.011 110.69 63.1371 110.69 69.4605V126.071C110.69 132.394 115.816 137.52 122.14 137.52H178.75C185.073 137.52 190.2 132.394 190.2 126.071V69.4605C190.2 63.1371 185.073 58.011 178.75 58.011Z" fill="#B999FF" stroke="#2C045D" stroke-width="2.28991" stroke-linecap="round" stroke-linejoin="round"/>
<path d="M150.443 70.4337C135.349 70.4337 123.113 82.6694 123.113 97.7637H150.443V70.4337Z" fill="#F2EDFF" stroke="#2C045D" stroke-width="2.28991" stroke-linecap="round" stroke-linejoin="round"/>
<path d="M177.777 97.7677C177.777 82.6734 165.541 70.4376 150.447 70.4376V97.7677H177.777Z" fill="#D1C1FF" stroke="#2C045D" stroke-width="2.28991" stroke-linecap="round" stroke-linejoin="round"/>
<path d="M150.443 125.098C165.537 125.098 177.773 112.862 177.773 97.7676H150.443V125.098Z" fill="#B999FF" stroke="#2C045D" stroke-width="2.28991" stroke-linecap="round" stroke-linejoin="round"/>
<path d="M150.443 125.098C135.349 125.098 123.113 112.862 123.113 97.7676H150.443V125.098Z" fill="#2C045D" stroke="#2C045D" stroke-width="2.28991" stroke-linecap="round" stroke-linejoin="round"/>
<path d="M138.994 97.7676H82.3833C76.0598 97.7676 70.9337 102.894 70.9337 109.217V165.827C70.9337 172.151 76.0598 177.277 82.3833 177.277H138.994C145.317 177.277 150.443 172.151 150.443 165.827V109.217C150.443 102.894 145.317 97.7676 138.994 97.7676Z" fill="#E1D7FF" stroke="#2C045D" stroke-width="2.28991" stroke-linecap="round" stroke-linejoin="round"/>
<path d="M116.9 79.1316V69.8384C116.9 67.4226 118.857 65.4647 121.273 65.4647H130.566C123.017 65.4647 116.9 71.5826 116.9 79.1316Z" fill="#F2EDFF" stroke="#F2EDFF" stroke-width="2.28991" stroke-linecap="round" stroke-linejoin="round"/>
<path d="M166.438 163.396L143.012 155.614C141.447 155.03 139.707 156.767 140.291 158.336L148.05 181.796C148.676 183.479 151.221 183.074 151.752 181.204L154.004 174.315L163.056 183.368C164.259 184.57 166.346 184.429 167.72 183.055C169.094 181.681 169.235 179.594 168.033 178.391L158.977 169.335L165.839 167.102C167.709 166.572 168.117 164.026 166.434 163.4L166.438 163.396Z" fill="#F2EDFF" stroke="#2C045D" stroke-width="2.28991" stroke-linecap="round" stroke-linejoin="round"/>
<path d="M166.438 163.396L143.012 155.614C141.447 155.03 139.707 156.767 140.291 158.336L148.05 181.796C148.676 183.479 151.221 183.074 151.752 181.204L154.004 174.315L163.056 183.368C164.259 184.57 166.346 184.429 167.72 183.055C169.094 181.681 169.235 179.594 168.033 178.391L158.977 169.335L165.839 167.102C167.709 166.572 168.117 164.026 166.434 163.4L166.438 163.396Z" fill="#F2EDFF" stroke="#2C045D" stroke-width="2.28991" stroke-linecap="round" stroke-linejoin="round"/>
<path d="M43.4547 149.443C43.4547 149.443 32.3411 159.355 42.0999 167.976C51.8549 176.594 75.3302 170.934 66.6668 190.242" stroke="#2C045D" stroke-width="2.28991" stroke-linecap="round" stroke-linejoin="round"/>
<path d="M110.419 98.1455L70.9337 151.63L73.4564 104.855L110.419 98.1455Z" fill="#2C045D" stroke="#2C045D" stroke-width="2.28991" stroke-linecap="round" stroke-linejoin="round"/>
<path d="M74.8759 135.666L110.419 98.1454L91.5999 80.3185L56.0567 117.839C55.0644 118.884 54.3545 120.163 53.992 121.564L47.2329 142.093C46.4544 144.451 48.8244 146.695 51.141 145.795L71.2731 137.933C72.6509 137.49 73.8913 136.715 74.8835 135.669L74.8759 135.666Z" fill="#B999FF" stroke="#2C045D" stroke-width="2.28991" stroke-linecap="round" stroke-linejoin="round"/>
<path d="M110.414 98.1576C112.48 95.9771 109.942 90.2187 104.745 85.296C99.5487 80.3732 93.6614 78.1501 91.5958 80.3307C89.5301 82.5112 92.0683 88.2696 97.2649 93.1924C102.461 98.1152 108.349 100.338 110.414 98.1576Z" fill="#E1D7FF" stroke="#2C045D" stroke-width="2.28991" stroke-linecap="round" stroke-linejoin="round"/>
<path d="M51.1373 145.791C48.8207 146.695 46.4544 144.451 47.2292 142.089L53.9882 121.56C54.3546 120.159 56.3125 117.564 57.301 116.518L57.5567 121.754C57.7856 123.766 58.5108 126.33 60.5297 126.453L61.9533 126.537C63.9722 126.659 65.6362 128.231 65.8652 130.242L66.0293 131.658C66.2583 133.67 68.8612 134.25 70.8801 134.372L76.124 134.345C75.1317 135.391 72.6471 137.486 71.2694 137.925L51.1373 145.787V145.791Z" fill="#F2EDFF" stroke="#2C045D" stroke-width="2.28991" stroke-linecap="round" stroke-linejoin="round"/>
<path d="M50.2709 132.906L47.2406 142.104C46.462 144.463 48.8321 146.711 51.1449 145.802L60.0946 142.306C58.1444 141.913 55.9499 140.742 54.0187 138.913C52.0456 137.043 50.7441 134.864 50.2671 132.906H50.2709Z" fill="#A77EFF" stroke="#2C045D" stroke-width="2.28991" stroke-linecap="round" stroke-linejoin="round"/>
<path d="M140.291 158.336L140.177 177.124L145.813 175.025" fill="#2C045D"/>
<path d="M140.291 158.336L140.177 177.124L145.813 175.025" stroke="#2C045D" stroke-width="2.28991" stroke-linecap="round" stroke-linejoin="round"/>
<path d="M91.7868 152.134H87.9774L98.9952 122.128H102.746L113.764 152.134H109.954L100.988 126.875H100.753L91.7868 152.134ZM93.1933 140.413H108.548V143.637H93.1933V140.413Z" fill="#2C045D"/>
<path d="M123.091 152.661C121.665 152.661 120.371 152.392 119.209 151.855C118.046 151.308 117.123 150.521 116.44 149.496C115.756 148.46 115.414 147.21 115.414 145.745C115.414 144.456 115.668 143.411 116.176 142.61C116.684 141.799 117.363 141.164 118.213 140.705C119.062 140.246 120 139.904 121.026 139.679C122.061 139.445 123.101 139.259 124.146 139.123C125.514 138.947 126.622 138.815 127.472 138.727C128.332 138.629 128.957 138.468 129.348 138.244C129.748 138.019 129.948 137.628 129.948 137.071V136.954C129.948 135.509 129.553 134.385 128.762 133.584C127.98 132.784 126.793 132.383 125.201 132.383C123.551 132.383 122.256 132.744 121.319 133.467C120.381 134.19 119.722 134.962 119.341 135.782L116.059 134.61C116.645 133.243 117.426 132.178 118.403 131.416C119.39 130.644 120.464 130.107 121.626 129.804C122.798 129.492 123.951 129.336 125.084 129.336C125.807 129.336 126.637 129.423 127.575 129.599C128.522 129.765 129.435 130.112 130.315 130.64C131.203 131.167 131.941 131.963 132.527 133.028C133.113 134.092 133.406 135.518 133.406 137.306V152.133H129.948V149.086H129.772C129.538 149.574 129.147 150.097 128.6 150.653C128.053 151.21 127.326 151.684 126.417 152.074C125.509 152.465 124.4 152.661 123.091 152.661ZM123.619 149.554C124.986 149.554 126.139 149.286 127.077 148.749C128.024 148.211 128.737 147.518 129.216 146.668C129.704 145.818 129.948 144.925 129.948 143.987V140.822C129.802 140.998 129.479 141.159 128.981 141.306C128.493 141.442 127.926 141.565 127.282 141.672C126.647 141.77 126.027 141.858 125.421 141.936C124.825 142.004 124.342 142.063 123.971 142.112C123.072 142.229 122.232 142.419 121.45 142.683C120.679 142.937 120.054 143.323 119.575 143.84C119.106 144.348 118.872 145.042 118.872 145.921C118.872 147.122 119.316 148.031 120.205 148.646C121.104 149.252 122.242 149.554 123.619 149.554Z" fill="#2C045D"/>
</svg>
