<svg width="272" height="247" viewBox="0 0 272 247" fill="none" xmlns="http://www.w3.org/2000/svg">
<g clip-path="url(#clip0_2001_965)">
<path d="M20.9932 168.554C-8.53496 153.053 -6.39153 99.2186 25.7942 48.3206C57.9779 -2.58481 108.001 -31.2838 137.537 -15.7847C156.125 -6.02646 162.154 18.9135 156.06 48.7475C211.009 -11.8311 278.26 -41.2677 321.375 -18.6406C364.491 3.99388 370.277 71.7663 340.324 145.479C365.588 125.703 392.291 117.952 410.88 127.71C440.408 143.211 438.265 197.045 406.079 247.944C373.895 298.849 323.87 327.541 294.342 312.039C275.754 302.281 269.725 277.341 275.819 247.507C220.862 308.088 153.611 337.525 110.504 314.895C67.3882 292.261 61.6017 224.488 91.555 150.775C66.2909 170.552 39.5877 178.303 20.9992 168.544L20.9932 168.554Z" fill="#DFD1FB" fill-opacity="0.3"/>
<path d="M86.7809 121.071L139.332 121.071C142.697 121.071 145.425 118.496 145.425 115.32V75.0986C145.425 71.9225 142.697 69.3478 139.332 69.3478H86.7809C83.4159 69.3478 80.688 71.9225 80.688 75.0986L80.688 115.32C80.688 118.496 83.4159 121.071 86.7809 121.071Z" fill="#D1C1FF" stroke="#2C045D" stroke-width="2.00218" stroke-linecap="round" stroke-linejoin="round"/>
<path d="M176.475 110.726H211.148C213.368 110.726 215.168 108.916 215.168 106.682V78.3974C215.168 76.1639 213.368 74.3533 211.148 74.3533H176.475C174.254 74.3533 172.454 76.1639 172.454 78.3974L172.454 106.682C172.454 108.916 174.254 110.726 176.475 110.726Z" fill="#D1C1FF" stroke="#2C045D" stroke-width="2.00218" stroke-linecap="round" stroke-linejoin="round"/>
<path d="M106.049 177.741H192.393C197.922 177.741 202.404 173.259 202.404 167.73V97.7121C202.404 92.1833 197.922 87.7012 192.393 87.7012L106.049 87.7012C100.52 87.7012 96.038 92.1833 96.038 97.7121L96.038 167.73C96.038 173.259 100.52 177.741 106.049 177.741Z" fill="#F2EDFF" stroke="#2C045D" stroke-width="2.00218" stroke-linecap="round" stroke-linejoin="round"/>
<path d="M110.053 114.897C110.053 117.017 111.771 118.735 113.891 118.735C116.01 118.735 117.728 117.017 117.728 114.897C117.728 112.778 116.01 111.06 113.891 111.06C111.771 111.06 110.053 112.778 110.053 114.897Z" fill="#D1C1FF" stroke="#2C045D" stroke-width="2.00218" stroke-linecap="round" stroke-linejoin="round"/>
<path d="M124.402 114.731H146.76" stroke="#2C045D" stroke-width="2.29" stroke-linecap="round" stroke-linejoin="round"/>
<path d="M167.115 114.731L174.457 114.731" stroke="#2C045D" stroke-width="2.29" stroke-linecap="round" stroke-linejoin="round"/>
<path d="M180.463 114.731L187.804 114.731" stroke="#2C045D" stroke-width="2.29" stroke-linecap="round" stroke-linejoin="round"/>
<path d="M187.804 125.743H110.053V150.77H187.804V125.743Z" fill="#D1C1FF" stroke="#2C045D" stroke-width="2.29" stroke-linecap="round" stroke-linejoin="round"/>
<path d="M111.054 159.78H128.623" stroke="#2C045D" stroke-width="2.29" stroke-linecap="round" stroke-linejoin="round"/>
<path d="M129.063 168.456H146.632" stroke="#2C045D" stroke-width="2.29" stroke-linecap="round" stroke-linejoin="round"/>
<path d="M111.054 168.456H122.035" stroke="#2C045D" stroke-width="2.29" stroke-linecap="round" stroke-linejoin="round"/>
<path d="M135.651 159.78H146.632" stroke="#2C045D" stroke-width="2.29" stroke-linecap="round" stroke-linejoin="round"/>
<path d="M202.404 102.598L202.404 97.7121C202.404 92.1828 197.922 87.7012 192.393 87.7012H106.049C100.52 87.7012 96.0382 92.1828 96.0382 97.7121L96.0383 102.598H202.404Z" fill="#A77EFF" stroke="#2C045D" stroke-width="2.29" stroke-linecap="round" stroke-linejoin="round"/>
<path d="M100.376 99.3806V96.6374C100.376 93.9645 101.49 91.7056 105.308 91.7056H108.051C103.812 91.7056 100.376 95.1413 100.376 99.3806Z" fill="#F2EDFF" stroke="#F2EDFF" stroke-width="2.29" stroke-linecap="round" stroke-linejoin="round"/>
<path d="M201.987 136.921L201.987 153.94L188.853 161.364C187.009 162.406 184.812 162.623 182.8 161.963L182.795 162.442C182.776 164.023 181.986 165.495 180.677 166.383C179.58 167.128 178.164 167.214 176.985 166.607L175.248 165.713C174.529 168.172 172.262 169.851 169.701 169.821L159.851 169.708L201.987 136.921Z" fill="#2C045D"/>
<path d="M159.653 158.39C165.626 151.079 176.69 155.972 172.691 165.194C171.297 168.125 168.946 168.597 165.9 168.659C163.266 168.712 160.83 170.114 159.793 171.453C159.371 171.998 158.609 171.839 158.42 171.167C157.679 168.529 155.469 163.516 159.653 158.39Z" fill="#F2EDFF" stroke="#2C045D" stroke-width="2.29" stroke-linecap="round" stroke-linejoin="round"/>
<path d="M178.739 162.769C181.349 160.564 180.962 155.815 177.875 152.161C174.789 148.507 170.171 147.332 167.561 149.536C164.952 151.741 165.338 156.49 168.425 160.144C171.511 163.798 176.129 164.973 178.739 162.769Z" fill="#B999FF" stroke="#2C045D" stroke-width="2.29" stroke-linecap="round" stroke-linejoin="round"/>
<path d="M214.383 121.323C211.379 117.767 205.973 117.55 202.696 120.854L172.978 149.887C172.856 150.01 172.765 150.163 172.724 150.332C172.474 151.368 173.207 153.204 174.637 154.897C176.067 156.59 177.752 157.619 178.818 157.546C178.991 157.533 179.157 157.47 179.299 157.37L212.891 132.924C216.697 130.245 217.387 124.879 214.383 121.323Z" fill="#B999FF" stroke="#2C045D" stroke-width="2.29" stroke-linecap="round" stroke-linejoin="round"/>
<path d="M212.891 132.921L208.995 135.663C207.527 136.448 204.476 134.816 201.947 131.82C199.459 128.874 198.352 125.645 199.293 124.29L202.703 120.854C205.98 117.55 211.386 117.767 214.388 121.32C217.392 124.876 216.699 130.242 212.894 132.919L212.891 132.921Z" fill="#2C045D" stroke="#2C045D" stroke-width="2.29" stroke-linecap="round" stroke-linejoin="round"/>
<path d="M208.938 135.692L204.826 138.574C202.796 138.403 200.379 137.035 198.46 134.764C196.542 132.493 195.601 129.896 195.767 127.871L199.261 124.334C198.371 125.715 199.483 128.908 201.945 131.823C204.407 134.737 207.448 136.408 208.94 135.695L208.938 135.692Z" fill="#F2EDFF" stroke="#2C045D" stroke-width="2.29" stroke-linecap="round" stroke-linejoin="round"/>
<path d="M208.004 124.813C210.127 124.992 211.932 124.139 212.036 122.909C212.139 121.679 210.502 120.537 208.379 120.358C206.256 120.179 204.451 121.032 204.347 122.262C204.243 123.492 205.881 124.634 208.004 124.813Z" fill="#F2EDFF"/>
<path d="M172.755 164.436C171.359 167.366 169.01 167.839 165.964 167.901C163.33 167.956 160.893 169.358 159.857 170.697C159.432 171.242 158.67 171.083 158.481 170.411C158.051 168.873 157.121 166.527 157.249 163.823C156.883 166.842 157.949 169.484 158.417 171.167C158.606 171.839 159.368 171.998 159.793 171.453C160.83 170.113 163.266 168.712 165.901 168.656C168.946 168.594 171.295 168.121 172.691 165.191C172.942 164.614 173.132 164.052 173.27 163.512C173.223 163.496 173.173 163.479 173.126 163.463C173.021 163.782 172.899 164.108 172.755 164.436Z" fill="#2C045D" stroke="#2C045D" stroke-width="2.29" stroke-linecap="round" stroke-linejoin="round"/>
</g>
<defs>
<clipPath id="clip0_2001_965">
<rect width="272" height="247" fill="white"/>
</clipPath>
</defs>
</svg>
