<svg width="122" height="178" viewBox="0 0 122 178" fill="none" xmlns="http://www.w3.org/2000/svg">
<g clip-path="url(#clip0_2002_1007)">
<path d="M15.3818 139.905C-5.23211 129.083 -3.73574 91.501 18.7334 55.9686C41.2012 20.431 76.1227 0.395978 96.7421 11.216C109.719 18.0284 113.928 35.4392 109.673 56.2666C148.034 13.9761 194.983 -6.57387 225.081 9.22235C255.181 25.0237 259.22 72.3363 238.31 123.796C255.947 109.99 274.589 104.579 287.566 111.391C308.179 122.213 306.683 159.795 284.214 195.327C261.746 230.865 226.823 250.895 206.209 240.073C193.233 233.261 189.024 215.85 193.278 195.023C154.912 237.315 107.963 257.865 77.8705 242.067C47.7706 226.266 43.731 178.953 64.6417 127.493C47.0046 141.3 28.3628 146.71 15.386 139.898L15.3818 139.905Z" fill="#DFD1FB" fill-opacity="0.3"/>
<path d="M11.7106 105.305L77.0381 105.305C81.2212 105.305 84.6123 101.914 84.6123 97.7312L84.6123 44.756C84.6123 40.5729 81.2212 37.1818 77.0381 37.1818L11.7106 37.1818C7.52752 37.1818 4.13644 40.5729 4.13644 44.756L4.13645 97.7312C4.13645 101.914 7.52753 105.305 11.7106 105.305Z" fill="#F2EDFF" stroke="#2C045D" stroke-width="1.70386" stroke-linecap="round" stroke-linejoin="round"/>
<path d="M14.7402 57.7583C14.7402 59.3618 16.0401 60.6617 17.6437 60.6617C19.2472 60.6617 20.5471 59.3618 20.5471 57.7583C20.5471 56.1548 19.2472 54.8549 17.6437 54.8549C16.0401 54.8549 14.7402 56.1548 14.7402 57.7583Z" fill="#D1C1FF" stroke="#2C045D" stroke-width="1.70386" stroke-linecap="round" stroke-linejoin="round"/>
<path d="M25.5966 57.6321H42.5123" stroke="#2C045D" stroke-width="1.70386" stroke-linecap="round" stroke-linejoin="round"/>
<path d="M57.9132 57.6321L63.4676 57.6321" stroke="#2C045D" stroke-width="1.70386" stroke-linecap="round" stroke-linejoin="round"/>
<path d="M68.0121 57.6321L73.5665 57.6321" stroke="#2C045D" stroke-width="1.70386" stroke-linecap="round" stroke-linejoin="round"/>
<path d="M73.5665 65.9637H14.7402V84.8992H73.5665V65.9637Z" fill="#D1C1FF" stroke="#2C045D" stroke-width="1.70386" stroke-linecap="round" stroke-linejoin="round"/>
<path d="M15.4978 91.716H28.7905" stroke="#2C045D" stroke-width="1.70386" stroke-linecap="round" stroke-linejoin="round"/>
<path d="M29.1228 98.2803H42.4155" stroke="#2C045D" stroke-width="1.70386" stroke-linecap="round" stroke-linejoin="round"/>
<path d="M15.4977 98.2803H23.8056" stroke="#2C045D" stroke-width="1.70386" stroke-linecap="round" stroke-linejoin="round"/>
<path d="M34.1077 91.716H42.4156" stroke="#2C045D" stroke-width="1.70386" stroke-linecap="round" stroke-linejoin="round"/>
<path d="M84.6125 48.4526L84.6124 44.756C84.6124 40.5725 81.2217 37.1818 77.0382 37.1818H11.7108C7.52731 37.1818 4.1366 40.5725 4.1366 44.756L4.13666 48.4526H84.6125Z" fill="#A77EFF" stroke="#2C045D" stroke-width="1.70386" stroke-linecap="round" stroke-linejoin="round"/>
<path d="M7.41858 46.0184V43.9429C7.41858 41.9206 8.26151 40.2115 11.15 40.2115H13.2255C10.018 40.2115 7.41858 42.8109 7.41858 46.0184Z" fill="#F2EDFF" stroke="#F2EDFF" stroke-width="1.70386" stroke-linecap="round" stroke-linejoin="round"/>
<path d="M84.2968 74.4215L84.2968 87.2976L74.3597 92.9149C72.9649 93.7033 71.3026 93.8677 69.7804 93.3677L69.7762 93.7302C69.7625 94.9265 69.1641 96.0403 68.1742 96.7122C67.3442 97.2755 66.2728 97.3405 65.3808 96.8816L64.0667 96.2055C63.5228 98.0653 61.8073 99.3356 59.8697 99.3133L52.4175 99.2276L84.2968 74.4215Z" fill="#2C045D"/>
<path d="M52.2676 90.6645C56.7861 85.1329 65.1576 88.835 62.1319 95.8125C61.0773 98.0297 59.2984 98.3875 56.9941 98.4344C55.001 98.4744 53.1575 99.5347 52.3734 100.548C52.0537 100.961 51.4772 100.84 51.3343 100.332C50.7742 98.3355 49.1019 94.5428 52.2676 90.6645Z" fill="#F2EDFF" stroke="#2C045D" stroke-width="1.70386" stroke-linecap="round" stroke-linejoin="round"/>
<path d="M66.7077 93.9775C68.6822 92.3097 68.3897 88.7165 66.0544 85.9519C63.7191 83.1873 60.2254 82.2982 58.2509 83.9661C56.2764 85.6339 56.5689 89.2272 58.9042 91.9917C61.2394 94.7563 64.7332 95.6454 66.7077 93.9775Z" fill="#B999FF" stroke="#2C045D" stroke-width="1.70386" stroke-linecap="round" stroke-linejoin="round"/>
<path d="M93.6758 62.6197C91.4032 59.9294 87.3127 59.7653 84.8331 62.2652L62.3491 84.2309C62.2567 84.3243 62.1881 84.4399 62.1571 84.5678C61.9679 85.3518 62.5221 86.7408 63.6041 88.0216C64.686 89.3024 65.961 90.081 66.7674 90.0257C66.8987 90.0165 67.0242 89.9682 67.1316 89.8926L92.5471 71.3972C95.4263 69.3704 95.9483 65.31 93.6758 62.6197Z" fill="#B999FF" stroke="#2C045D" stroke-width="1.70386" stroke-linecap="round" stroke-linejoin="round"/>
<path d="M92.5471 71.3949L89.5995 73.4692C88.4885 74.0634 86.1799 72.8283 84.267 70.5618C82.3841 68.3327 81.5471 65.8901 82.2586 64.8651L84.8385 62.2651C87.3181 59.7652 91.4086 59.9293 93.6795 62.6177C95.9521 65.308 95.4282 69.3682 92.5491 71.3932L92.5471 71.3949Z" fill="#2C045D" stroke="#2C045D" stroke-width="1.70386" stroke-linecap="round" stroke-linejoin="round"/>
<path d="M89.5559 73.4916L86.4449 75.6717C84.9093 75.5425 83.0803 74.5077 81.6288 72.7894C80.1773 71.071 79.4656 69.1061 79.5909 67.5738L82.2342 64.8983C81.5615 65.9431 82.4027 68.3585 84.2655 70.5638C86.1284 72.7691 88.429 74.033 89.5575 73.4936L89.5559 73.4916Z" fill="#F2EDFF" stroke="#2C045D" stroke-width="1.70386" stroke-linecap="round" stroke-linejoin="round"/>
<path d="M88.8494 65.2603C90.4559 65.3955 91.8217 64.7506 91.9 63.8198C91.9784 62.889 90.7396 62.0249 89.1332 61.8896C87.5268 61.7544 86.161 62.3993 86.0826 63.3301C86.0043 64.2609 87.243 65.125 88.8494 65.2603Z" fill="#F2EDFF"/>
<path d="M62.1802 95.2388C61.1238 97.4558 59.3467 97.8137 57.0423 97.8606C55.0492 97.9024 53.2056 98.9627 52.4216 99.9761C52.1 100.389 51.5235 100.268 51.3806 99.7598C51.0556 98.596 50.3518 96.8211 50.4486 94.7752C50.1717 97.0597 50.9781 99.0584 51.3325 100.331C51.4754 100.84 52.0519 100.96 52.3734 100.548C53.1575 99.5342 55.0011 98.4739 56.9942 98.4321C59.2986 98.3852 61.0757 98.0272 62.1321 95.8102C62.3214 95.3738 62.4657 94.9483 62.57 94.5397C62.5343 94.5275 62.4967 94.5151 62.4609 94.5029C62.3817 94.7445 62.2893 94.9905 62.1802 95.2388Z" fill="#2C045D" stroke="#2C045D" stroke-width="1.70386" stroke-linecap="round" stroke-linejoin="round"/>
</g>
<defs>
<clipPath id="clip0_2002_1007">
<rect width="122" height="178" fill="white"/>
</clipPath>
</defs>
</svg>
